<svg xmlns="http://www.w3.org/2000/svg" viewBox="0 0 640 512">
  <!-- FontAwesome Free 6.4.0 by @fontawesome - https://fontawesome.com License - https://fontawesome.com/license (Icons: CC BY 4.0, Fonts: SIL OFL 1.1, Code: MIT License) Copyright 2023 Fonticons, Inc. -->
  <path d="M96 64c0-17.7 14.3-32 32-32s32 14.3 32 32V224H480V64c0-17.7 14.3-32 32-32s32 14.3 32 32V448c0 17.7-14.3 32-32 32s-32-14.3-32-32V288H160V448c0 17.7-14.3 32-32 32s-32-14.3-32-32V64zM48 104V408c0 13.3-10.7 24-24 24s-24-10.7-24-24V104c0-13.3 10.7-24 24-24s24 10.7 24 24zm592 0V408c0 13.3-10.7 24-24 24s-24-10.7-24-24V104c0-13.3 10.7-24 24-24s24 10.7 24 24z" fill="black"/>
</svg>
